# xmcd
#
# Track frame offsets: 
#        150
#        14551
#        35843
#        52052
#        65853
#        79522
#        99189
#        114007
#        129803
#        143043
#
# Disc length: 2133 seconds
#
# Revision: 0
# Processed by: cddbd v1.5.2PL0 Copyright (c) Steve Scherf et al.
# Submitted via: ExactAudioCopyFreeDBPlugin 1.0
#
DISCID=7f08530a
DTITLE=Gretchen Wilson - Snapshot
DYEAR=2014
DGENRE=Country
TTITLE0=Work Hard Play Harder
TTITLE1=Still Rollin'
TTITLE2=I'd Love To Be Your Last
TTITLE3=Get Outta My Yard
TTITLE4=Trucker Man
TTITLE5=Grandma
TTITLE6=I Got Your Country Right Here
TTITLE7=One Good Friend
TTITLE8=The Earrings Song
TTITLE9=Right On Time
EXTD=
EXTT0=
EXTT1=
EXTT2=
EXTT3=
EXTT4=
EXTT5=
EXTT6=
EXTT7=
EXTT8=
EXTT9=
PLAYORDER=
